<?xml version="1.0" standalone="no"?>
<!DOCTYPE svg PUBLIC "-//W3C//DTD SVG 20010904//EN"
 "http://www.w3.org/TR/2001/REC-SVG-20010904/DTD/svg10.dtd">
<svg version="1.0" xmlns="http://www.w3.org/2000/svg"
 width="500.000000pt" height="500.000000pt" viewBox="0 0 500.000000 500.000000"
 preserveAspectRatio="xMidYMid meet">

<g transform="translate(0.000000,500.000000) scale(0.100000,-0.100000)"
fill="#000000" stroke="none">
<path d="M2408 3563 c-270 -406 -368 -628 -368 -833 0 -104 5 -130 24 -130 7
0 11 36 11 118 1 117 13 185 52 275 23 54 26 39 8 -39 -21 -91 -38 -269 -29
-318 l6 -39 102 6 c165 9 366 81 526 188 102 68 200 160 200 186 0 54 -227
459 -376 671 l-51 72 -105 -157z"/>
<path d="M2900 2648 c-143 -100 -361 -197 -535 -239 l-80 -19 60 5 c166 15
407 98 542 188 82 55 106 79 101 105 -3 16 -14 11 -88 -40z"/>
<path d="M1361 2025 c-17 -52 -31 -102 -31 -110 0 -22 31 -18 37 5 4 16 14 20
48 20 35 0 45 -4 50 -20 6 -20 29 -27 39 -11 3 4 -9 53 -28 107 -29 89 -35 99
-59 102 -24 3 -27 -2 -56 -93z m68 23 c4 -13 11 -35 15 -50 6 -26 4 -28 -24
-28 -33 0 -35 6 -18 61 13 45 16 47 27 17z"/>
<path d="M1564 2099 c-15 -16 -19 -36 -19 -90 0 -78 12 -96 66 -105 51 -9 89
24 89 77 0 39 0 39 -40 39 -29 0 -40 -4 -40 -15 0 -8 9 -15 20 -15 23 0 27
-29 8 -48 -16 -16 -33 -15 -52 4 -19 19 -22 114 -4 132 20 20 59 15 65 -8 6
-23 43 -27 43 -5 0 51 -99 75 -136 34z"/>
<path d="M1740 2035 c0 -78 2 -88 25 -110 15 -16 36 -25 55 -25 19 0 40 9 55
25 23 22 25 32 25 110 0 78 -2 85 -20 85 -18 0 -20 -7 -20 -85 0 -74 -2 -86
-20 -95 -14 -8 -26 -8 -40 0 -18 9 -20 21 -20 95 0 78 -2 85 -20 85 -18 0 -20
-7 -20 -85z"/>
<path d="M1972 2022 c-18 -54 -32 -103 -32 -110 0 -19 28 -14 40 8 8 15 21 20
50 20 29 0 42 -5 50 -20 12 -22 40 -27 40 -8 0 7 -14 56 -32 110 -30 90 -34
98 -58 98 -24 0 -28 -8 -58 -98z m77 4 c14 -59 15 -56 -19 -56 -16 0 -30 3
-30 6 0 19 24 94 30 94 4 0 13 -20 19 -44z"/>
<path d="M2222 2013 c2 -88 6 -108 18 -108 10 0 16 13 18 43 3 42 3 42 43 42
46 0 79 27 79 65 0 44 -32 65 -100 65 l-61 0 3 -107z m109 61 c19 -23 -1 -48
-40 -52 -30 -3 -31 -2 -31 32 0 33 2 36 29 36 16 0 34 -7 42 -16z"/>
<path d="M2410 2035 c0 -78 2 -88 25 -110 15 -16 36 -25 55 -25 19 0 40 9 55
25 23 22 25 32 25 110 0 78 -2 85 -20 85 -18 0 -20 -7 -20 -85 0 -74 -2 -86
-20 -95 -14 -8 -26 -8 -40 0 -18 9 -20 21 -20 95 0 78 -2 85 -20 85 -18 0 -20
-7 -20 -85z"/>
<path d="M2620 2020 c0 -55 0 -103 -1 -107 0 -5 7 -9 15 -11 11 -2 16 8 18 45
4 67 31 71 58 9 18 -43 43 -66 56 -53 3 3 -4 24 -16 47 l-21 42 20 19 c12 11
21 32 21 48 0 43 -28 61 -93 61 l-57 0 0 -100z m108 38 c3 -22 -2 -29 -22 -34
-36 -9 -56 1 -56 29 0 32 9 39 45 35 24 -2 31 -8 33 -30z"/>
<path d="M2812 2013 c2 -88 6 -108 18 -108 10 0 17 14 20 45 5 44 6 45 43 48
49 4 44 26 -6 30 -34 3 -37 6 -37 33 0 29 1 29 55 29 42 0 55 3 55 15 0 12
-15 15 -75 15 l-76 0 3 -107z"/>
<path d="M2992 2013 c2 -88 6 -108 18 -108 12 0 16 20 18 108 3 102 2 107 -18
107 -20 0 -21 -5 -18 -107z"/>
<path d="M3092 2097 c-18 -19 -22 -35 -22 -86 0 -52 4 -66 25 -86 30 -31 73
-32 109 -4 31 24 34 49 6 49 -11 0 -20 -4 -20 -10 0 -18 -39 -31 -60 -20 -16
9 -20 21 -20 68 0 32 5 63 12 70 18 18 45 14 62 -9 9 -13 21 -19 30 -16 21 8
20 23 -4 47 -29 29 -90 27 -118 -3z"/>
<path d="M3325 2108 c-22 -60 -61 -198 -57 -203 12 -11 31 -4 37 15 5 16 15
20 50 20 35 0 45 -4 50 -20 6 -19 25 -26 37 -15 3 3 -9 52 -26 108 -30 94 -34
102 -59 105 -16 2 -29 -2 -32 -10z m59 -115 c7 -21 4 -23 -28 -23 -20 0 -36 1
-36 3 0 2 8 26 17 53 l17 49 12 -30 c6 -17 15 -40 18 -52z"/>
<path d="M3490 2020 c0 -55 0 -103 0 -107 0 -5 25 -8 54 -8 80 1 96 19 96 111
0 88 -15 104 -97 104 l-53 0 0 -100z m98 61 c9 -5 12 -27 10 -72 l-3 -64 -37
-3 -38 -3 0 69 c0 38 3 72 7 75 9 10 45 8 61 -2z"/>
<path d="M3711 2025 c-17 -52 -31 -102 -31 -110 0 -22 31 -18 37 5 8 30 78 28
103 -2 13 -16 22 -20 29 -13 8 8 1 40 -22 110 -30 90 -36 100 -60 103 -24 3
-27 -2 -56 -93z m68 23 c4 -13 11 -35 15 -50 6 -26 4 -28 -24 -28 -33 0 -35 6
-19 63 12 43 16 45 28 15z"/>
<path d="M2020 1696 l0 -66 40 0 c22 0 40 5 40 10 0 6 -13 10 -30 10 -29 0
-30 1 -30 49 0 28 -4 53 -10 56 -6 4 -10 -18 -10 -59z"/>
<path d="M2141 1698 c-23 -68 -21 -80 9 -53 18 16 21 16 44 2 13 -9 26 -14 29
-11 10 10 -35 124 -48 124 -7 0 -23 -28 -34 -62z m49 -10 c0 -10 -7 -18 -15
-18 -16 0 -19 17 -9 45 5 13 8 14 15 3 5 -7 9 -21 9 -30z"/>
<path d="M2290 1694 c0 -41 4 -63 10 -59 6 3 10 15 10 26 0 12 7 19 19 19 20
0 51 24 51 40 0 18 -33 40 -61 40 l-29 0 0 -66z m65 26 c0 -8 -10 -16 -22 -18
-18 -3 -23 2 -23 18 0 16 5 21 23 18 12 -2 22 -10 22 -18z"/>
<path d="M2407 1753 c-11 -10 -8 -123 3 -123 6 0 10 11 10 24 0 38 18 40 38 7
20 -32 39 -32 22 0 -7 12 -6 26 1 43 9 20 9 29 -1 41 -13 15 -61 21 -73 8z
m58 -33 c0 -8 -10 -16 -22 -18 -18 -3 -23 2 -23 18 0 16 5 21 23 18 12 -2 22
-10 22 -18z"/>
<path d="M2520 1694 c0 -41 4 -63 10 -59 6 3 10 33 10 66 0 33 -4 59 -10 59
-6 0 -10 -29 -10 -66z"/>
<path d="M2567 1730 c-10 -47 -8 -88 3 -95 6 -4 10 8 10 29 0 45 12 46 40 1
12 -19 26 -33 31 -29 12 7 12 111 -1 119 -6 4 -10 -11 -11 -37 l0 -43 -17 24
c-9 14 -24 34 -33 45 -15 19 -16 18 -22 -14z"/>
<path d="M2694 1735 c-25 -39 -3 -105 36 -105 21 0 46 27 35 38 -4 4 -10 1
-12 -5 -7 -21 -41 -15 -48 8 -10 32 3 69 24 69 11 0 21 -6 24 -12 2 -7 8 -10
12 -6 11 11 -14 38 -36 38 -10 0 -26 -11 -35 -25z"/>
<path d="M2800 1701 c0 -33 5 -63 10 -66 6 -4 10 18 10 59 0 37 -4 66 -10 66
-6 0 -10 -26 -10 -59z"/>
<path d="M2850 1695 c0 -37 4 -65 10 -65 6 0 10 11 10 24 0 18 7 25 29 29 62
13 45 77 -21 77 -28 0 -28 0 -28 -65z m65 25 c0 -8 -10 -16 -22 -18 -18 -3
-23 2 -23 18 0 16 5 21 23 18 12 -2 22 -10 22 -18z"/>
<path d="M2997 1753 c-12 -21 -38 -115 -33 -120 3 -3 12 2 21 11 19 19 20 19
47 5 11 -6 22 -9 24 -7 2 3 -4 29 -14 58 -18 51 -34 71 -45 53z m27 -49 c10
-26 7 -34 -14 -34 -11 0 -20 4 -20 9 0 17 12 41 20 41 4 0 11 -7 14 -16z"/>
<path d="M3090 1696 l0 -66 34 0 c19 0 38 5 41 10 4 6 -7 10 -24 10 -30 0 -31
1 -31 49 0 28 -4 53 -10 56 -6 4 -10 -18 -10 -59z"/>
</g>
</svg>
